<svg xmlns="http://www.w3.org/2000/svg" viewBox="0 0 1024 1024">
  <defs>
    <linearGradient id="bg" x1="112" y1="60" x2="880" y2="964" gradientUnits="userSpaceOnUse">
      <stop stop-color="#18263A"/>
      <stop offset="0.48" stop-color="#0C111B"/>
      <stop offset="1" stop-color="#06090F"/>
    </linearGradient>
    <linearGradient id="line" x1="198" y1="700" x2="822" y2="306" gradientUnits="userSpaceOnUse">
      <stop stop-color="#4CE18C"/>
      <stop offset="0.55" stop-color="#6AA8FF"/>
      <stop offset="1" stop-color="#DDFB73"/>
    </linearGradient>
    <filter id="shadow" x="-30%" y="-30%" width="160%" height="160%">
      <feDropShadow dx="0" dy="28" stdDeviation="30" flood-color="#000000" flood-opacity="0.45"/>
    </filter>
    <filter id="glow" x="-35%" y="-35%" width="170%" height="170%">
      <feGaussianBlur stdDeviation="12" result="blur"/>
      <feMerge>
        <feMergeNode in="blur"/>
        <feMergeNode in="SourceGraphic"/>
      </feMerge>
    </filter>
  </defs>

  <rect width="1024" height="1024" rx="228" fill="url(#bg)"/>
  <path d="M136 712H888" stroke="#26364B" stroke-width="22" stroke-linecap="round"/>
  <path d="M136 520H888" stroke="#1D2A3C" stroke-width="18" stroke-linecap="round"/>
  <path d="M136 328H888" stroke="#172333" stroke-width="18" stroke-linecap="round"/>
  <path d="M238 794V230" stroke="#25364D" stroke-width="18" stroke-linecap="round"/>
  <path d="M438 794V230" stroke="#1D2B3E" stroke-width="16" stroke-linecap="round"/>
  <path d="M638 794V230" stroke="#1D2B3E" stroke-width="16" stroke-linecap="round"/>

  <g opacity="0.84">
    <rect x="290" y="584" width="42" height="118" rx="21" fill="#43D787"/>
    <path d="M311 538V748" stroke="#43D787" stroke-width="18" stroke-linecap="round"/>
    <rect x="440" y="488" width="42" height="154" rx="21" fill="#6AA8FF"/>
    <path d="M461 438V690" stroke="#6AA8FF" stroke-width="18" stroke-linecap="round"/>
    <rect x="590" y="382" width="42" height="182" rx="21" fill="#DDFB73"/>
    <path d="M611 330V606" stroke="#DDFB73" stroke-width="18" stroke-linecap="round"/>
  </g>

  <g filter="url(#shadow)">
    <path d="M192 704L350 596L492 630L650 446L826 314" fill="none" stroke="#061018" stroke-width="82" stroke-linecap="round" stroke-linejoin="round" opacity="0.62"/>
    <path d="M192 704L350 596L492 630L650 446L826 314" fill="none" stroke="url(#line)" stroke-width="54" stroke-linecap="round" stroke-linejoin="round"/>
    <path d="M735 302H832V399" fill="none" stroke="url(#line)" stroke-width="54" stroke-linecap="round" stroke-linejoin="round"/>
  </g>

  <g filter="url(#glow)">
    <circle cx="192" cy="704" r="32" fill="#43D787"/>
    <circle cx="350" cy="596" r="30" fill="#43D787"/>
    <circle cx="492" cy="630" r="30" fill="#6AA8FF"/>
    <circle cx="650" cy="446" r="30" fill="#DDFB73"/>
    <circle cx="826" cy="314" r="34" fill="#DDFB73"/>
  </g>

  <path d="M184 820H840" stroke="#EAF3FF" stroke-opacity="0.18" stroke-width="24" stroke-linecap="round"/>
</svg>
